<?xml version="1.0" encoding="UTF-8" standalone="no"?>
<!-- Created with Inkscape (http://www.inkscape.org/) -->
<svg id="svg2" xmlns:rdf="http://www.w3.org/1999/02/22-rdf-syntax-ns#" xmlns="http://www.w3.org/2000/svg" height="147.08" width="112.5" version="1.0" xmlns:cc="http://creativecommons.org/ns#" xmlns:xlink="http://www.w3.org/1999/xlink" xmlns:dc="http://purl.org/dc/elements/1.1/">
 <metadata id="metadata371">
  <rdf:RDF>
   <cc:Work rdf:about="">
    <dc:format>image/svg+xml</dc:format>
    <dc:type rdf:resource="http://purl.org/dc/dcmitype/StillImage"/>
   </cc:Work>
  </rdf:RDF>
 </metadata>
 <defs id="defs4">
  <linearGradient id="linearGradient1475" y2="137.27" gradientUnits="userSpaceOnUse" x2="112.03" gradientTransform="matrix(.56254 0 0 .56797 -9.3997 -5.3053)" y1="192.35" x1="150.96">
   <stop id="stop4673" stop-color="#ffd43b" offset="0"/>
   <stop id="stop4675" stop-color="#ffe873" offset="1"/>
  </linearGradient>
  <linearGradient id="linearGradient1478" y2="114.4" gradientUnits="userSpaceOnUse" x2="135.67" gradientTransform="matrix(.56254 0 0 .56797 -9.3997 -5.3053)" y1="20.604" x1="26.649">
   <stop id="stop4691" stop-color="#5a9fd4" offset="0"/>
   <stop id="stop4693" stop-color="#306998" offset="1"/>
  </linearGradient>
  <linearGradient id="linearGradient2900" y2="125.32" gradientUnits="userSpaceOnUse" y1="100.34" gradientTransform="matrix(54.983 -33.902 34.588 56.095 -4288.1 -372.37)" x2="44.376" x1="40.775">
   <stop id="stop3651" stop-color="#e26400" offset="0"/>
   <stop id="stop3653" stop-color="#ffb900" offset="1"/>
  </linearGradient>
  <linearGradient id="linearGradient2897" y2="108.99" gradientUnits="userSpaceOnUse" y1="102.28" gradientTransform="matrix(15.517 -9.5679 9.5679 15.517 -4239.8 -294.1)" x2="93.522" x1="64.751">
   <stop id="stop3670" stop-color="#9b4400" offset="0"/>
   <stop id="stop3672" stop-color="#e56300" offset="1"/>
  </linearGradient>
  <linearGradient id="linearGradient2894" y2="55.356" gradientUnits="userSpaceOnUse" y1="70.105" gradientTransform="matrix(15.517 -9.5679 9.5679 15.517 -4239.8 -294.1)" x2="261.62" x1="115.2">
   <stop id="stop3648" stop-color="#f48200" stop-opacity="0" offset="0"/>
   <stop id="stop3654" stop-color="#f48200" stop-opacity=".72785" offset=".58888"/>
   <stop id="stop3658" stop-color="#cc5f00" offset=".81622"/>
   <stop id="stop3650" stop-color="#a43d00" offset="1"/>
  </linearGradient>
  <linearGradient id="linearGradient2891" y2="290.7" gradientUnits="userSpaceOnUse" y1="228.6" gradientTransform="matrix(15.517 -9.5679 9.5679 15.517 -4239.8 -294.1)" x2="278.43" x1="44.104">
   <stop id="stop3628" stop-color="#a1abb2" offset="0"/>
   <stop id="stop3630" stop-color="#eaeced" offset=".082978"/>
   <stop id="stop3632" stop-color="#c6ccd0" offset="1"/>
  </linearGradient>
  <linearGradient id="linearGradient2888" y2="27.389" gradientUnits="userSpaceOnUse" y1="12.641" gradientTransform="matrix(15.517 -9.5679 9.5679 15.517 -4239.8 -294.1)" x2="164.76" x1="104.89">
   <stop id="stop3714" stop-color="#a1abb2" offset="0"/>
   <stop id="stop3720" stop-color="#eaeced" offset=".14824"/>
   <stop id="stop3716" stop-color="#c6ccd0" offset="1"/>
  </linearGradient>
  <linearGradient id="linearGradient2883" y2="463.26" gradientUnits="userSpaceOnUse" y1="461.92" gradientTransform="matrix(15.517 -9.5679 9.5679 15.517 -4239.8 -294.1)" x2="412.23" x1="-113.89">
   <stop id="stop3677" stop-color="#ffb900" offset="0"/>
   <stop id="stop3679" stop-color="#ffd76b" offset="1"/>
  </linearGradient>
  <filter id="filter3807" color-interpolation-filters="sRGB">
   <feGaussianBlur id="feGaussianBlur3809" stdDeviation="1.1354669"/>
  </filter>
  <linearGradient id="linearGradient3842" x1="236.65" spreadMethod="reflect" gradientUnits="userSpaceOnUse" y1="158.48" gradientTransform="matrix(12.563 -7.7463 7.7463 12.563 -3558.4 853.03)" x2="236.05" y2="162.89">
   <stop id="stop3691" stop-color="#f68000" offset="0"/>
   <stop id="stop3693" stop-color="#fd9800" offset="1"/>
  </linearGradient>
 </defs>
 <path id="path1948" fill="url(#linearGradient1478)" d="m55.947 32.401c-4.5837 0.0213-8.9609 0.41222-12.812 1.0938-11.346 2.0045-13.406 6.2001-13.406 13.938v10.219h26.812v3.4062h-26.812-10.062c-7.7925 0-14.616 4.6837-16.75 13.594-2.4618 10.213-2.571 16.586 0 27.25 1.9059 7.9378 6.4575 13.594 14.25 13.594h9.2188v-12.25c0-8.8499 7.6571-16.656 16.75-16.656h26.781c7.455 0 13.406-6.1382 13.406-13.625v-25.531c0-7.2663-6.13-12.725-13.406-13.938-4.606-0.76672-9.3851-1.115-13.969-1.0938zm-14.5 8.2188c2.7695 0 5.0312 2.2986 5.0312 5.125-0.000002 2.8163-2.2617 5.0938-5.0312 5.0938-2.7795-0.000001-5.0312-2.2774-5.0312-5.0938-0.000001-2.8264 2.2518-5.125 5.0312-5.125z"/>
 <path id="path1950" fill="url(#linearGradient1475)" d="m86.802 60.921v11.906c0 9.2308-7.8259 17-16.75 17h-26.781c-7.3358 0-13.406 6.2785-13.406 13.625v25.531c0 7.2663 6.3186 11.54 13.406 13.625 8.4873 2.4956 16.626 2.9466 26.781 0 6.7502-1.9544 13.406-5.8876 13.406-13.625v-10.219h-26.781v-3.4062h26.781 13.406c7.7925 0 10.696-5.4354 13.406-13.594 2.7993-8.3989 2.6802-16.476 0-27.25-1.9258-7.7574-5.6039-13.594-13.406-13.594h-10.063zm-15.062 64.656c2.7795 0 5.0312 2.2774 5.0312 5.0937-0.000002 2.8264-2.2518 5.125-5.0312 5.125-2.7696 0-5.0312-2.2986-5.0312-5.125 0.000002-2.8163 2.2617-5.0937 5.0312-5.0937z"/>
 <g id="g3150" transform="matrix(.057672 .035560 -.035560 .057672 72.447 -10.803)">
  <path id="path3657" d="m18.405 714.97s-10.805 11.655-13.663 21.115c-1.9971 6.6109-2.7768 16.467 0.82805 22.357 2.645 4.3219 6.1117 8.6938 11.179 8.6945 220.29 0.0321 463.91 0.35663 635.32 0.82805 5.8029 0.0159 16.81-1.0026 21.322-7.4525 4.5993-6.5744 4.4855-21.229 1.2421-28.568-3.4154-7.7279-19.459-11.179-19.459-11.179l-636.76-5.79z" fill-rule="evenodd" fill="#cb5600"/>
  <path id="rect2862" d="m99.578 482.56c-10.065 0-20.514 7.7544-23.43 17.411l-70.327 232.95c-2.9158 9.6561 2.8271 17.449 12.892 17.449h648.54c7.6685 0 12.064-5.9138 9.8427-13.271l-72.87-241.27c-2.22-7.36-10.16-13.27-17.83-13.27h-486.81z" fill-rule="evenodd" fill="url(#linearGradient2900)"/>
  <path id="path3656" d="m339.9 2.6219c-16.728-0.16822-26.57 1.0752-36.437 8.4917-4.5037 3.3852-8.0624 11.426-10.19 17.215l-171.69 566.74s4.0032 25.611 28.291 48.891c16.373 15.693 47.425 27.321 66.932 31.549 50.067 10.852 90.217 13.443 135.62 12.755 46.64-0.70637 93.236-9.8736 138.08-22.706 66.883-19.139 69.013-72.843 69.013-72.843l-176.58-574.93c-0.72722-2.3676-2.4963-4.1134-3.8985-5.4424-10.49-9.9428-26.385-9.5986-39.139-9.7269z" fill-rule="evenodd" fill="url(#linearGradient2897)"/>
  <path id="path2825" d="m339.9 2.6219c-16.728-0.16822-26.57 1.0752-36.437 8.4917-4.5037 3.3852-8.0624 11.426-10.19 17.215l-171.69 566.74s7.5494 49.018 68.309 72.911c42.057 16.539 85.467 18.733 153.02 19.455 75.227 0.80474 105.87-6.5764 155.04-23.733 23.146-8.0758 35.144-18.576 46.121-30.219 15.874-16.837 15.453-40.77 15.453-40.77l-176.59-574.92c-1.1937-2.1702-2.4963-4.1134-3.8985-5.4424-10.49-9.9428-26.385-9.5986-39.139-9.7269z" fill-rule="evenodd" fill="url(#linearGradient2894)"/>
  <path id="path2843" d="m184.27 388.18-39.255 129.58c47.608 40.124 117.48 65.463 195.35 65.463 78.223 0 148.35-25.565 195.97-66.004l-39.525-128.73c-36.388 29.03-92.782 47.669-156.09 47.669-63.521 0-120.07-18.783-156.44-47.978z" fill-rule="evenodd" fill="url(#linearGradient2891)"/>
  <path id="path2829" d="m411.19 109.85c-18.526 6.2169-43.841 10.074-71.794 10.074-27.498 0-52.464-3.7265-70.906-9.7655l-41.416 136.76c27.84 14.569 68.605 23.777 114.06 23.777 44.556 0 84.64-8.8173 112.44-22.889l-42.381-137.95z" fill-rule="evenodd" fill="url(#linearGradient2888)"/>
  <path id="path3692" opacity=".10638" d="m316.96 25.449c5.3748 1.0074 9.9273 8.0273 9.3683 13.467-19.769 192.38-43.02 401.56-61.48 587.28 0 0-2.0567 12.884-7.0262 15.809-20.938 12.326-50.854 4.3874-72.605-6.4407-14.844-7.3899-28.577-21.015-33.375-36.888-4.9679-16.434 3.3671-34.305 7.6118-50.94 43.313-169.75 100.45-356.64 142.28-512.04 1.59-5.9066 9.2113-11.374 15.224-10.247z" fill-rule="evenodd" fill="#fff"/>
  <path id="path3746" d="m370.33 8.1218a30.172 4.7613 0 1 1 -60.344 0 30.172 4.7613 0 1 1 60.344 0z" fill="#cb5c00"/>
  <path id="path3673" d="m5.5704 735.05s2.1042 5.301 6.8987 7.5014c4.039 1.8495 19.392 1.1952 19.392 1.1952s423.82 0.00053 631.18 0c3.3947-0.001 6.9897-0.0521 10.079-1.4592 3.3282-1.5159 3.9749-5.1872 3.9749-5.1872s1.6325 6.4533-2.1032 10.417c-2.6482 2.8098-7.3651 2.8529-11.226 2.8538-208.96 0.0473-427.25 0-638.96 0-5.482-0.002-12.362 0.48045-16.053-3.5721-5.0047-5.4938-3.1875-11.749-3.1875-11.749z" fill-rule="evenodd" fill="url(#linearGradient2883)"/>
  <path id="path3683" opacity=".70922" d="m95.219 112.3c-2.4792 7.1061-2.1375 11.638-6.9569 13.914-11.292 5.3311-23.622 4.094-35.721 4.2812-12.336 0.19083-24.909 0.11761-36.925-2.5419-3.1732-0.69958-5.6349-4.0171-6.6893-7.0907-0.69151-2.0158-2.2841-3.7049-2.0068-6.6893 0.0705-0.75878 0.87046-1.2344 1.6203-1.3703 0.65819-0.11936 1.7444-0.12471 2.5271 0.5676 1.7095 1.5122 2.8167 3.639 4.2839 3.9433 12.005 2.4896 24.546 3.6125 37.725 3.6825 9.8069 0.0521 16.907-0.048 26.356-2.6757 1.5757-0.43823 5.9948-1.2373 7.3582-2.1406 0.79038-0.52366 1.3817-1.3047 2.1406-1.873 1.3962-1.0456 2.6763-2.6685 4.4149-2.8095 0.67703-0.0549 2.0968 0.16137 1.873 0.80271z" fill-rule="evenodd" transform="matrix(4.3765 0 0 4.3765 122.74 174.66)" fill="url(#linearGradient3842)"/>
  <path id="path3705" d="m0.49475 91.819s-0.9792 2.0153-1.3379 4.4149c-0.60667 4.0589 2.0227 8.0036 4.5487 11.238 2.718 3.4803 7.0299 5.5217 11.104 7.2244 6.3566 2.6565 13.347 3.6362 20.193 4.4077 6.5807 0.74159 14.584 0.45958 21.191 0 6.8068-0.47353 15.741-1.1023 18.92-1.7028 7.1836-1.357 11.954-3.4772 17.217-7.0005 2.2432-1.5017 4.6089-3.2071 6.0545-5.4869 1.1027-1.739 2.7488-3.4297 2.838-5.4869 0.0503-1.1584-1.3244-3.2164-1.3244-3.2164s-5.9533 10.359-16.161 13.59c-8.8469 2.8008-17.902 4.7344-27.167 5.2652-8.9551 0.51305-20.087 0.1568-28.873-1.6474-6.5079-1.3363-12.26-3.1368-17.794-6.8113-2.9372-1.9499-6.4767-5.6641-7.7248-8.9614-0.94045-2.4846-1.6839-5.827-1.6839-5.827z" fill-rule="evenodd" transform="matrix(4.3765 0 0 4.3765 122.74 174.66)" filter="url(#filter3807)" fill="#ee6900"/>
 </g>
</svg>
